{"title":"How To Train Your Dragon 2010 TC H264 WRATH","uid":5711350,"size":1507091031,"categoryP":"video","categoryS":"movies","magnet":"?xt=urn:btih:46e93f340d4e69737d5f95e157f50fdb5b6f63ab&amp;dn=How+To+Train+Your+Dragon+2010+TC+H264+WRATH&amp;tr=udp%3A%2F%2Ftracker.openbittorrent.com%3A80&amp;tr=udp%3A%2F%2Fopen.demonii.com%3A1337&amp;tr=udp%3A%2F%2Ftracker.coppersurfer.tk%3A6969&amp;tr=udp%3A%2F%2Fexodus.desync.com%3A6969","seeders":0,"leechers":1,"uploader":"hiest","files":1,"time":1279910043,"description":"File Name\n\nHow To Train Your Dragon 2010 TC H264.mp4\n\nFile Size\nFormat : MPEG-4\nFormat profile : Base Media\nCodec ID : isom\nFile size : 1.40 GiB\nDuration : 1h 30mn\nOverall bit rate : 2 231 Kbps\n\nVideo\nID : 1\nFormat : AVC\nFormat/Info : Advanced Video Codec\nFormat profile : &lt;a class=&quot;__cf_email__&quot; href=&quot;/cdn-cgi/l/email-protection&quot; data-cfemail=&quot;e9a1808e81a9a5ddc7d8&quot;&gt;[email&amp;#160;protected]&lt;/a&gt;&lt;script cf-hash='f9e31' type=&quot;text/javascript&quot;&gt;\n/* &lt;![CDATA[ */!function(){try{var t=&quot;currentScript&quot;in document?document.currentScript:function(){for(var t=document.getElementsByTagName(&quot;script&quot;),e=t.length;e--;)if(t[e].getAttribute(&quot;cf-hash&quot;))return t[e]}();if(t&amp;&amp;t.previousSibling){var e,r,n,i,c=t.previousSibling,a=c.getAttribute(&quot;data-cfemail&quot;);if(a){for(e=&quot;&quot;,r=parseInt(a.substr(0,2),16),n=2;a.length-n;n+=2)i=parseInt(a.substr(n,2),16)^r,e+=String.fromCharCode(i);e=document.createTextNode(e),c.parentNode.replaceChild(e,c)}}}catch(u){}}();/* ]]&gt; */&lt;/script&gt;\nFormat settings, CABAC : Yes\nFormat settings, ReFrames : 3 frames\nCodec ID : avc1\nCodec ID/Info : Advanced Video Coding\nDuration : 1h 30mn\nBit rate mode : Variable\nBit rate : 2 099 Kbps\nMaximum bit rate : 7 116 Kbps\nWidth : 1 280 pixels\nHeight : 544 pixels\nDisplay aspect ratio : 2.35:1\nFrame rate mode : Constant\nFrame rate : 23.976 fps\nResolution : 24 bits\nColorimetry : 4:2:0\nScan type : Progressive\nBits/(Pixel*Frame) : 0.126\nStream size : 1.32 GiB (94%)\n\nAudio \nID : 2\nFormat : AAC\nFormat/Info : Advanced Audio Codec\nFormat version : Version 4\nFormat profile : LC\nFormat settings, SBR : No\nCodec ID : 40\nDuration : 1h 30mn\nBit rate mode : Variable\nBit rate : 128 Kbps\nMaximum bit rate : 134 Kbps\nChannel(s) : 2 channels\nChannel positions : L R\nSampling rate : 48.0 KHz\nResolution : 16 bits\nStream size : 82.5 MiB (6%)\n\nEnglish SRT : ----\n\nLanguage : English\n\n\n &lt;a href=&quot;\nhttp://www.imdb.com/title/tt0892769/&quot; rel=&quot;nofollow&quot; target=&quot;_NEW&quot;&gt;\nhttp://www.imdb.com/title/tt0892769/&lt;/a&gt;\n\nRelease Date: 26 March 2010 (USA) \n\nGenre: Animation | Adventure | Comedy | Family | Fantasy \n\nPlot: A hapless young Viking who aspires to hunt dragons becomes the unlikely friend of a young dragon himself, and learns there may be more to the creatures than he assumed.\n\nCast: \nJay Baruchel ... Hiccup (voice)\nGerard Butler ... Stoick (voice)\nCraig Ferguson ... Gobber (voice)\nAmerica Ferrera ... Astrid (voice)\nJonah Hill ... Snotlout (voice)\nChristopher Mintz-Plasse ... Fishlegs (voice)\nT.J. Miller ... Tuffnut (voice)\nKristen Wiig ... Ruffnut (voice)\nRobin Atkin Downes ... Ack\nPhilip McGrade ... Starkard (voice)\nKieron Elliott ... Hoark the Haggard (voice)\nAshley Jensen ... Phlegma the Fierce (voice)\nPeter Aude ... Havblik den VÃƒÂ¦ldige (voice: Danish Version)\nRasmus Ellersgaard ... Fiskeben (voice: Danish Version)\nRobert Hansen ... Hikke (voice: Danish Version)\nJulian Eliot Kellerman ... Stenknold Thorskal (voice: Danish Version)\nSasia MÃƒÂ¸lgaard ... Benknold (voice: Danish Version)\nNiclas Mortensen ... SnotfjÃƒÂ¦s (voice: Danish Version)\nNiels Olsen ... Gobert (voice: Danish Version)\nozlem Saglanmak ... Astrid (voice: Danish Version)\nDavid Tennant ... Spitelout\n\n\n\nScreenshots\n\n &lt;a href=&quot;\nhttp://postimg.com/image/19000/18339.jpg&quot; rel=&quot;nofollow&quot; target=&quot;_NEW&quot;&gt;\nhttp://postimg.com/image/19000/18339.jpg&lt;/a&gt;\n &lt;a href=&quot;\nhttp://postimg.com/image/19000/18340.jpg&quot; rel=&quot;nofollow&quot; target=&quot;_NEW&quot;&gt;\nhttp://postimg.com/image/19000/18340.jpg&lt;/a&gt;","torrent":{"xt":"urn:btih:46e93f340d4e69737d5f95e157f50fdb5b6f63ab","amp;dn":"How+To+Train+Your+Dragon+2010+TC+H264+WRATH","amp;tr":["udp%3A%2F%2Ftracker.openbittorrent.com%3A80","udp%3A%2F%2Fopen.demonii.com%3A1337","udp%3A%2F%2Ftracker.coppersurfer.tk%3A6969","udp%3A%2F%2Fexodus.desync.com%3A6969"],"infoHash":"46e93f340d4e69737d5f95e157f50fdb5b6f63ab","infoHashBuffer":{"type":"Buffer","data":[70,233,63,52,13,78,105,115,125,95,149,225,87,245,15,219,91,111,99,171]},"announce":[],"urlList":[]}}